<svg width="52" height="44" viewBox="0 0 52 44" fill="none" xmlns="http://www.w3.org/2000/svg">
<path d="M49 2.99993H45C43.346 2.99993 42 4.34293 42 5.99693V7.99993H31.209L13.627 0.342934C11.677 -0.505066 9.327 0.289934 8.396 2.12093C7.942 3.01293 7.875 4.01793 8.209 4.95593C8.56 5.93993 9.301 6.72493 10.296 7.16193L12.198 7.99993H11H8H4C1.794 7.99993 0 9.79393 0 11.9999C0 14.2059 1.794 15.9999 4 15.9999H8H11H20.178C16.515 18.9999 14 22.3649 14 26.9989C14 29.4969 14.713 31.9129 16.057 34.0079C16.021 34.3329 16 34.6629 16 34.9979C16 39.9609 20.037 43.9979 25 43.9979C28.686 43.9979 31.962 41.7899 33.346 38.3729L33.306 38.3569C37.293 36.1329 40 31.8769 40 26.9969V24.9999H42.185C42.599 25.9999 43.699 26.9999 45 26.9999H49C50.654 26.9999 52 25.6519 52 23.9969V5.99693C52 4.34293 50.654 2.99993 49 2.99993ZM11.102 5.33193C10.616 5.11793 10.257 4.74493 10.093 4.28493C9.946 3.87093 9.976 3.42393 10.177 3.02893C10.64 2.12293 11.828 1.74293 12.828 2.17793L26.198 7.99993H17.163L11.102 5.33193ZM2 11.9999C2 10.8969 2.897 9.99993 4 9.99993H4.556C4.212 10.9999 4 11.2679 4 11.9999C4 12.7319 4.212 13.9999 4.556 13.9999H4C2.897 13.9999 2 13.1029 2 11.9999ZM25 41.9969C21.141 41.9969 18 38.8559 18 34.9969C18 31.1379 21.141 27.9969 25 27.9969C27.126 27.9969 29.123 28.9799 30.441 30.6079C29.543 31.4639 28.335 31.9969 27 31.9969C24.794 31.9969 23 33.7909 23 35.9969C23 38.2029 24.794 39.9969 27 39.9969C28.144 39.9969 29.248 39.8339 30.306 39.5549C29.001 41.0779 27.089 41.9969 25 41.9969ZM31.613 28.9199C29.925 27.0909 27.537 25.9969 25 25.9969C23.966 25.9969 22.976 26.1809 22.05 26.5039C22.302 23.9809 24.412 21.9969 27 21.9969C29.757 21.9969 32 24.2399 32 26.9969C32 27.6789 31.861 28.3279 31.613 28.9199ZM38 22.9999V24.9969V26.9969C38 33.0619 33.065 37.9969 27 37.9969C25.897 37.9969 25 37.0999 25 35.9969C25 34.8939 25.897 33.9969 27 33.9969C30.859 33.9969 34 30.8559 34 26.9969C34 23.1379 30.859 19.9969 27 19.9969C23.141 19.9969 20 23.1379 20 26.9969C20 27.1979 19.965 27.3949 19.906 27.5849C18.587 28.4939 17.528 29.7489 16.845 31.2139C16.293 29.8849 16 28.4579 16 26.9969C16 20.9319 21 15.9969 27 15.9969V13.9999C26.663 13.9999 11 13.9999 11 13.9999H8C6.897 13.9999 6 13.1029 6 11.9999C6 10.8969 6.897 9.99993 8 9.99993H11H42V22.9999H40H38ZM50 23.9969C50 24.5489 49.552 24.9999 49 24.9999H48V18.9999H46V24.9999H45C44.448 24.9999 44 24.5489 44 23.9969V5.99693C44 5.44593 44.448 4.99993 45 4.99993H49C49.552 4.99993 50 5.44593 50 5.99693V23.9969Z" fill="#216E7A"/>
</svg>
