<svg width="52" height="50" viewBox="0 0 52 50" fill="none" xmlns="http://www.w3.org/2000/svg">
<path d="M47 13H42.53C41.807 9.98896 40.269 7.22296 38.026 4.97196C34.805 1.76196 30.583 -4.38368e-05 26.125 -4.38368e-05C26.041 -4.38368e-05 25.957 -0.00104384 25.875 -4.38368e-05C21.417 -4.38368e-05 17.194 1.76296 13.972 4.97496C11.73 7.22496 10.193 9.98996 9.471 13.001H5C2.243 13.001 0 15.244 0 18.001V22.001C0 24.758 2.243 27.001 5 27.001H7.456C5.282 29.057 4 31.948 4 35V40C4 45.514 8.486 50 14 50H26H38C43.514 50 48 45.514 48 40V35C48 31.948 46.718 29.057 44.545 27H47C49.757 27 52 24.757 52 22V18C52 15.243 49.757 13 47 13ZM15.386 6.38896C18.229 3.55496 21.949 1.99996 25.875 1.99996C25.914 1.99996 25.954 1.99996 25.992 1.99996L26 0.999956L26.008 1.99996C30.016 1.97096 33.743 3.52796 36.612 6.38596C36.995 6.77096 37.355 7.17296 37.691 7.58996C36.03 6.58096 34.082 5.99996 32 5.99996C29.457 5.99996 27.226 7.36296 26 9.39696C24.774 7.36296 22.543 5.99996 20 5.99996C17.918 5.99996 15.97 6.58096 14.309 7.58996C14.644 7.17296 15.003 6.77196 15.386 6.38896ZM5 25C3.346 25 2 23.654 2 22V18C2 16.346 3.346 15 5 15H9V25H5ZM46 35V40C46 44.411 42.411 48 38 48H26H14C9.589 48 6 44.411 6 40V35C6 31.799 7.725 28.812 10.501 27.205L10.855 27H11V17C11 12.038 15.038 7.99996 20 7.99996C22.757 7.99996 25 10.243 25 13V14H27V13C27 10.243 29.243 7.99996 32 7.99996C36.963 7.99996 41 12.038 41 17V27H41.145L41.499 27.205C44.275 28.812 46 31.799 46 35ZM50 22C50 23.654 48.654 25 47 25H43V15H47C48.654 15 50 16.346 50 18V22ZM19 29C22.309 29 25 26.309 25 23C25 19.691 22.309 17 19 17C15.691 17 13 19.691 13 23C13 26.309 15.691 29 19 29ZM19 19C21.206 19 23 20.794 23 23C23 25.206 21.206 27 19 27C16.794 27 15 25.206 15 23C15 20.794 16.794 19 19 19ZM39 36H41V39C41 41.206 39.206 43 37 43H15C12.794 43 11 41.206 11 39V36H13V39C13 40.103 13.897 41 15 41H37C38.103 41 39 40.103 39 39V36ZM33 29C36.309 29 39 26.309 39 23C39 19.691 36.309 17 33 17C29.691 17 27 19.691 27 23C27 26.309 29.691 29 33 29ZM33 19C35.206 19 37 20.794 37 23C37 25.206 35.206 27 33 27C30.794 27 29 25.206 29 23C29 20.794 30.794 19 33 19Z" fill="#216E7A"/>
</svg>
