<svg width="237" height="280" viewBox="0 0 237 280" fill="none" xmlns="http://www.w3.org/2000/svg">
<path d="M168.508 192.5C169.749 174.157 153.422 146.994 148.008 146C148.008 146 118.008 192.5 104.008 220.5C104.448 224.844 106.27 227.142 106.008 231.5C105.737 236 100.353 238.541 102.508 242.5C104.872 246.842 115.008 244.5 115.008 244.5C129.008 242 130.008 221.5 131.508 221C134.008 224.5 136.651 235.5 135.508 239.5C134.508 243 131.371 244.732 132.508 248C133.773 251.637 137.508 253 141.008 253C149.508 253.5 156.508 247 161.008 241C169.508 228 169.508 205.5 168.508 192.5Z" fill="#0A5D69"/>
<rect x="40" y="130" width="123" height="92" rx="46" fill="#F3F6F7"/>
<path d="M87.4244 220.5C96.9244 192.5 90.9243 144.5 68.4243 134C60.0895 134.336 47.4244 142 47.4244 142C47.4244 142 18.4487 176.921 15.4244 204C15.9244 214.5 21.9249 231.5 19.9244 246C17.4244 248.39 16.9244 249 15.4244 251.5C13.4244 255.5 18.9243 258 22.9244 258C27.9244 258 34.3002 256.159 39.4244 251.5C46.0529 245.473 45.4243 237.5 47.4244 230C50.9244 234.5 50.4243 251.5 47.9243 255.5C44.4243 261.5 44.9244 263.5 47.4244 266C54.4244 269.833 67.9244 266 73.9244 258C82.4244 244.5 83.1399 236 87.4244 220.5Z" fill="#0A5D69"/>
<circle cx="13.5" cy="132.5" r="13.5" fill="#0A5D69"/>
<circle cx="54.5" cy="126.5" r="13.5" fill="#0A5D69"/>
<rect y="122" width="79" height="71" rx="35.5" fill="#F3F6F7"/>
<ellipse cx="54.6304" cy="151.602" rx="8.85868" ry="11.6027" transform="rotate(-31.8762 54.6304 151.602)" fill="#0A5D69"/>
<ellipse rx="8.85868" ry="11.6027" transform="matrix(-0.978754 -0.205037 -0.205037 0.978754 21.0497 161.173)" fill="#0A5D69"/>
<path d="M33.4999 170C34.2331 173.72 40.9999 175.5 41.9997 175.5C42.9995 175.5 49.4845 169.889 47.4997 166C45.4997 162.5 33 165.5 33.4999 170Z" fill="#0A5D69"/>
<ellipse cx="23.5" cy="159" rx="2.5" ry="3" fill="#F3F6F7"/>
<ellipse cx="50.5" cy="151" rx="2.5" ry="3" fill="#F3F6F7"/>
<path d="M110.183 31H99.6833L104.183 75L105.183 110H117.183L112.183 75L110.183 31Z" fill="#216E7A"/>
<path d="M115.728 116H107.291C106.698 116 106.236 116.512 106.296 117.102L110.683 160L111.656 194.029C111.671 194.57 112.114 195 112.655 195H122.53C123.139 195 123.606 194.461 123.52 193.859L118.683 160L116.727 116.955C116.702 116.421 116.262 116 115.728 116Z" fill="#216E7A"/>
<path d="M136.162 146L126.538 146C125.95 146 125.489 146.505 125.542 147.091L127.616 169.852L127.616 190.387C127.616 190.982 128.131 191.445 128.722 191.382L138.977 190.286C139.547 190.225 139.949 189.698 139.858 189.132L136.698 169.59C136.688 169.53 136.684 169.47 136.686 169.409L137.162 147.021C137.174 146.461 136.723 146 136.162 146Z" fill="#216E7A"/>
<path d="M122.228 201H113.791C113.198 201 112.736 201.512 112.796 202.102L117.175 244.917C117.181 244.972 117.182 245.028 117.178 245.083L116.252 259.436C116.215 260.012 116.672 260.5 117.25 260.5H126.971C127.6 260.5 128.072 259.927 127.953 259.31L125.197 245.072C125.188 245.024 125.182 244.976 125.18 244.927L123.227 201.955C123.202 201.421 122.762 201 122.228 201Z" fill="#216E7A"/>
<path d="M93.8834 219.387C99.7019 215.918 108.041 204.294 108.648 195.498C108.686 194.947 108.243 194.602 107.781 194.905C104.152 197.286 92.9401 209.667 92.6418 218.656C92.6195 219.327 93.3067 219.731 93.8834 219.387Z" fill="#216E7A"/>
<path d="M90.002 186.18C92.1425 192.385 100.422 193.413 106.189 193.159C106.562 193.143 106.924 192.907 106.905 192.534C106.755 189.604 97.1882 185.553 90.9017 185.052C90.2723 185.001 89.7961 185.583 90.002 186.18Z" fill="#216E7A"/>
<path d="M122.487 133.495C129.742 131.936 142.074 122.974 144.984 114.549C145.165 114.027 144.829 113.558 144.294 113.696C139.834 114.846 124.048 123.745 121.506 132.456C121.324 133.078 121.853 133.631 122.487 133.495Z" fill="#216E7A"/>
<path d="M222.636 160.3C218.26 166.293 205.056 173.912 196.174 173.142C195.624 173.095 195.333 172.597 195.676 172.165C198.541 168.558 213.093 157.759 222.086 158.981C222.727 159.068 223.018 159.777 222.636 160.3Z" fill="#216E7A"/>
<path d="M235.271 55.9241C227.467 62.939 206.463 69.3555 195.102 64.9756C194.587 64.777 194.414 64.2072 194.831 63.8451C199.276 59.9873 223.801 49.189 235.068 54.4862C235.643 54.7562 235.742 55.4998 235.271 55.9241Z" fill="#216E7A"/>
<path d="M202.919 33.2697C203.432 41.4772 197.599 57.124 189.67 62.1721C189.205 62.4687 188.658 62.2597 188.643 61.7076C188.506 56.7723 193.312 37.2227 201.677 32.5734C202.231 32.2654 202.88 32.6369 202.919 33.2697Z" fill="#216E7A"/>
<path d="M217.733 87.9074C213.988 79.9922 201.625 68.8142 193.18 68.7566C192.628 68.7528 192.273 69.2341 192.525 69.726C194.861 74.2996 208.531 89.7531 217.073 89.1144C217.669 89.0698 217.989 88.4476 217.733 87.9074Z" fill="#216E7A"/>
<path d="M157.945 29.6021L147.462 29L149.432 73.1856L148.423 108.185L160.403 108.874L157.418 73.6444L157.945 29.6021Z" fill="#216E7A"/>
<path d="M188.632 1.69669L178.27 0L175.601 44.1489L170.932 78.8505L182.774 80.7896L183.496 45.4416L188.632 1.69669Z" fill="#216E7A"/>
<path d="M200.568 94.5294L187.029 92L183.38 136.111L177.152 170.577L192.625 173.468L193.696 138.038L200.568 94.5294Z" fill="#216E7A"/>
<path d="M158.606 114.78L150.183 114.296C149.591 114.262 149.1 114.747 149.126 115.339L151.046 158.419L150.066 192.447C150.05 192.988 150.468 193.443 151.008 193.474L160.867 194.04C161.474 194.075 161.972 193.564 161.92 192.958L159.033 158.877L159.548 115.791C159.555 115.256 159.139 114.811 158.606 114.78Z" fill="#216E7A"/>
<path d="M180.368 86.4756L172.042 85.1123C171.457 85.0166 170.918 85.4474 170.882 86.0388L168.28 129.082L163.741 162.821C163.669 163.357 164.036 163.853 164.57 163.941L174.316 165.537C174.916 165.635 175.464 165.179 175.477 164.57L176.175 130.375L181.2 87.5791C181.262 87.0481 180.896 86.562 180.368 86.4756Z" fill="#216E7A"/>
<path d="M189.765 179.042L178.276 176.895C177.681 176.784 177.108 177.219 177.058 177.819L173.504 220.796L167.358 257.121C167.263 257.683 167.66 258.196 168.23 258.247L181.106 259.403C181.687 259.455 182.205 259.007 182.231 258.428L183.819 222.723L190.545 180.144C190.627 179.622 190.285 179.139 189.765 179.042Z" fill="#216E7A"/>
<path d="M160.235 200.014L151.796 199.529C151.205 199.495 150.714 199.979 150.74 200.571L152.18 233.928C152.182 233.976 152.181 234.024 152.176 234.072L149.785 257.501C149.729 258.052 150.131 258.544 150.683 258.598L163.494 259.852C164.134 259.915 164.666 259.366 164.583 258.728L161.268 233.325L161.177 201.009C161.176 200.48 160.763 200.044 160.235 200.014Z" fill="#216E7A"/>
<path d="M132.516 86.2623C129.878 94.0961 138.067 102.718 144.389 107.704C144.675 107.93 145.088 107.996 145.328 107.722C147.684 105.043 140.336 92.0469 133.964 85.9318C133.491 85.4782 132.725 85.6413 132.516 86.2623Z" fill="#216E7A"/>
<path d="M210.785 199.041C203.2 198.513 198.237 188.26 195.844 180.912C195.732 180.569 195.81 180.158 196.152 180.044C199.248 179.005 208.231 190.015 211.615 197.812C211.88 198.421 211.447 199.088 210.785 199.041Z" fill="#216E7A"/>
<path d="M138.521 195.459L128.897 195.459C128.309 195.459 127.848 195.964 127.901 196.549L129.975 219.311L129.975 258.887C129.975 259.482 130.49 259.945 131.081 259.882L141.413 258.778C141.953 258.72 142.349 258.241 142.303 257.7L139.043 218.959L139.521 196.48C139.533 195.919 139.082 195.459 138.521 195.459Z" fill="#216E7A"/>
</svg>
